<svg width="32" height="32" viewBox="0 0 32 32" fill="none" xmlns="http://www.w3.org/2000/svg">
<path fill-rule="evenodd" clip-rule="evenodd" d="M30 19.813H27.2286V18.5038L28.916 14.6298H27.2901V13.187H29.9507V14.4962L28.2632 18.3702H30V19.813ZM26.0897 18.7443H26.0034C25.8802 19.3588 25.5969 19.9198 25.0364 19.9198C24.359 19.9198 23.8478 18.8645 23.8478 17.1412V13.187H24.6238V16.9809C24.6238 17.9027 24.8701 18.4504 25.3135 18.4504C25.8124 18.4504 26.0773 17.7824 26.0773 16.6069V13.187H26.8533V19.813H26.0897V18.7443ZM23.1274 20C22.7948 20 22.5423 19.479 22.5423 18.7309C22.5423 17.9828 22.7948 17.4618 23.1274 17.4618C23.4598 17.4618 23.7124 17.9828 23.7124 18.7309C23.7124 19.479 23.46 20 23.1274 20ZM20.905 15.7118L21.0098 15.7386C21.9889 15.9924 22.3524 16.5401 22.3524 17.7557C22.3524 19.0515 21.7918 20 20.979 20C20.1352 20 19.7047 19.0649 19.4215 18.1298L19.9997 17.2882C20.1907 18.1565 20.6033 18.6107 20.9974 18.6107C21.3114 18.6107 21.6009 18.3168 21.6009 17.7958C21.6009 17.3015 21.2868 17.208 20.9543 17.1279L20.8496 17.1011C19.9936 16.8874 19.6055 16.2863 19.6055 15.0573C19.6055 13.8283 20.1229 13 20.8311 13C21.4594 13 21.9028 13.6011 22.3154 14.5363L21.7548 15.4981C21.5209 14.897 21.2129 14.3626 20.8065 14.3626C20.517 14.3626 20.3569 14.6298 20.3569 15.0305C20.3569 15.5114 20.5848 15.6317 20.905 15.7118ZM17.7258 19.813L17.2454 14.6298H17.1715L16.6912 19.813H15.5826L14.9791 13.187H15.755L16.1184 18.3702H16.1923L16.6727 13.187H17.7443L18.2247 18.3702H18.2986L18.6619 13.187H19.438L18.8344 19.813H17.7258ZM13.4145 18.5573C13.8455 18.5573 14.0734 18.0363 14.1781 17.5687L14.8125 18.3702C14.6031 19.0649 14.2459 20 13.4268 20C12.5153 20 11.8563 18.5038 11.8563 16.4466C11.8563 14.4427 12.4906 13 13.3898 13C14.2767 13 14.8741 14.3492 14.8741 16.3397V16.9943H12.6507C12.6815 17.876 12.9711 18.5573 13.4145 18.5573ZM14.0858 15.8187C14.0303 14.9771 13.7839 14.4427 13.3837 14.4427C12.9464 14.4427 12.7185 15.0038 12.657 15.8187H14.0858ZM10.7907 16.019C10.7907 15.0973 10.5443 14.5496 10.1009 14.5496C9.60202 14.5496 9.33724 15.2175 9.33724 16.3931V19.813H8.56128V13.187H9.32496V14.2557H9.41111C9.53429 13.6412 9.8176 13.0801 10.3781 13.0801C11.0555 13.0801 11.5667 14.1355 11.5667 15.8588V19.813H10.7907V16.019Z" fill="#52618F"/>
<path fill-rule="evenodd" clip-rule="evenodd" d="M8.18973 19.813H5.41832V18.5038L7.10579 14.6298H5.47991V13.187H8.14044V14.4962L6.45297 18.3702H8.18973V19.813ZM4.24173 18.7443H4.15551C4.03231 19.3588 3.74903 19.9198 3.18863 19.9198C2.51118 19.9198 2 18.8645 2 17.1412V13.187H2.77599V16.9809C2.77599 17.9027 3.02234 18.4504 3.46577 18.4504C3.96463 18.4504 4.22945 17.7824 4.22945 16.6069V13.187H5.00545V19.813H4.24173V18.7443Z" fill="#A2BCDE"/>
</svg>
